<svg width="440" height="440" viewBox="0 0 440 440" fill="none" xmlns="http://www.w3.org/2000/svg">
<path fill-rule="evenodd" clip-rule="evenodd" d="M220 69.9997C302.844 69.9997 370 137.156 370 220C370 302.844 302.844 370 220 370C137.156 370 70.0001 302.844 70.0001 220C70.0001 137.156 137.156 69.9997 220 69.9997Z" stroke="black" stroke-width="40"/>
<path d="M282.722 305.787C279.521 311.148 275.072 316.052 269.605 319.839C269.738 319.98 269.888 320.136 270.058 320.31C271.314 321.624 271.734 321.876 273.438 322.323C275.281 322.799 275.533 322.994 277.739 325.176L280.058 327.497V329.175C280.058 330.853 280.086 330.881 281.538 332.308C282.795 333.538 283.271 333.79 284.975 334.182C286.846 334.629 287.069 334.797 288.94 336.671L290.896 338.685L290.645 340.362L290.365 342.041L291.985 343.468C293.633 344.95 294.5 345.257 296.958 345.257C297.74 345.257 298.159 345.565 299.835 347.438C301.595 349.396 301.846 349.789 302.014 351.075C302.153 352.138 302.517 352.949 303.41 354.207L304.64 355.886H306.511C307.768 355.886 308.439 355.998 308.662 356.277C308.831 356.502 309.892 357.76 311.009 359.046C312.796 361.143 313.048 361.591 313.216 362.821C313.355 363.996 313.607 364.472 314.892 365.926C316.009 367.156 316.623 367.632 317.126 367.632C317.657 367.632 315.478 369.506 308.02 375.491C302.628 379.826 298.215 383.435 298.215 383.547C298.246 383.769 315.702 398.762 316.093 398.901C316.237 398.954 319.866 396.27 324.165 392.972C328.495 389.643 332.127 386.931 332.267 386.931C332.41 386.933 335.062 388.582 338.16 390.566L343.775 394.23L360.87 381.169C370.248 373.987 378.036 368.035 378.189 367.94C378.301 367.829 377.128 365.059 375.592 361.787C374.056 358.489 372.884 355.72 372.938 355.605C373.031 355.487 376.659 352.637 381.039 349.285C385.418 345.934 388.988 343.113 389 342.992C389 342.741 376.213 322.306 375.731 321.792C375.424 321.484 373.664 322.771 364.865 329.847C359.111 334.461 354.278 338.265 354.166 338.265C354.025 338.263 353.187 337.509 352.267 336.587C350.926 335.245 350.423 334.909 349.725 334.909C347.602 334.909 347.127 334.629 345.507 332.476L343.942 330.406L344.306 328.924L344.669 327.413L343.328 325.847C342.071 324.42 341.847 324.28 339.92 323.833C337.965 323.358 337.797 323.246 335.897 321.288C334.166 319.498 333.915 319.134 334.082 318.463C334.641 316.058 334.64 316.141 333.021 314.184L331.484 312.338L329.612 312.17C328.585 312.059 327.723 311.948 327.686 311.919C327.658 311.863 326.791 310.688 325.758 309.317L323.858 306.8L324.025 305.262L324.165 303.724L322.713 302.102C321.456 300.703 321.037 300.423 319.444 299.976C317.713 299.5 317.545 299.36 315.59 297.095L313.578 294.718L313.886 293.207L314.221 291.726L312.434 290.131C311.289 289.096 310.115 288.341 309.193 288.033C308.16 287.67 307.461 287.194 306.734 286.299C306.149 285.629 305.758 285.042 305.785 285.013C305.847 284.954 313.611 281.039 323.021 276.286C332.4 271.535 340.105 267.565 340.115 267.448C340.115 267.336 335.674 261.883 330.255 255.366L323.099 246.783L282.722 305.787ZM109.745 255.366C104.326 261.883 99.8849 267.336 99.8848 267.448C99.8949 267.565 107.6 271.535 116.979 276.286C126.39 281.039 134.153 284.954 134.215 285.013C134.242 285.042 133.851 285.629 133.266 286.299C132.539 287.194 131.84 287.67 130.807 288.033C129.885 288.341 128.712 289.096 127.566 290.131L125.779 291.726L126.114 293.207L126.422 294.718L124.41 297.095C122.455 299.36 122.287 299.5 120.556 299.976C118.963 300.423 118.544 300.703 117.287 302.102L115.835 303.724L115.975 305.262L116.142 306.8L114.242 309.317C113.209 310.688 112.342 311.863 112.314 311.919C112.278 311.948 111.415 312.059 110.388 312.17L108.516 312.338L106.979 314.184C105.36 316.141 105.359 316.058 105.918 318.463C106.085 319.134 105.834 319.498 104.103 321.288C102.203 323.246 102.035 323.358 100.08 323.833C98.1528 324.28 97.9288 324.42 96.6719 325.847L95.3311 327.413L95.6943 328.924L96.0576 330.406L94.4932 332.476C92.8732 334.629 92.398 334.909 90.2754 334.909C89.5771 334.909 89.0741 335.245 87.7334 336.587C86.8126 337.509 85.975 338.263 85.834 338.265C85.7222 338.265 80.8891 334.461 75.1348 329.847C66.3356 322.771 64.5758 321.484 64.2686 321.792C63.7876 322.305 51 342.741 51 342.992C51.0115 343.113 54.5824 345.934 58.9609 349.285C63.3414 352.637 66.9696 355.487 67.0615 355.605C67.116 355.72 65.9437 358.489 64.4082 361.787C62.8719 365.059 61.6988 367.829 61.8105 367.94C61.9642 368.035 69.7528 373.988 79.1299 381.169L96.2246 394.23L101.84 390.566C104.938 388.582 107.59 386.933 107.733 386.931C107.873 386.931 111.505 389.643 115.835 392.972C120.134 396.27 123.764 398.954 123.907 398.901C124.298 398.762 141.754 383.769 141.785 383.547C141.785 383.435 137.372 379.826 131.98 375.491C124.522 369.506 122.343 367.632 122.874 367.632C123.377 367.632 123.991 367.156 125.108 365.926C126.393 364.472 126.645 363.996 126.784 362.821C126.952 361.591 127.204 361.143 128.991 359.046C130.108 357.76 131.169 356.502 131.338 356.277C131.561 355.998 132.232 355.886 133.488 355.886H135.36L136.59 354.207C137.483 352.949 137.847 352.138 137.986 351.075C138.154 349.789 138.405 349.396 140.165 347.438C141.841 345.565 142.26 345.257 143.042 345.257C145.5 345.257 146.367 344.95 148.015 343.468L149.635 342.041L149.355 340.362L149.104 338.685L151.06 336.671C152.931 334.797 153.154 334.629 155.025 334.182C156.729 333.79 157.205 333.538 158.462 332.308C159.914 330.881 159.942 330.853 159.942 329.175V327.497L162.261 325.176C164.467 322.994 164.719 322.799 166.562 322.323C168.266 321.876 168.686 321.624 169.942 320.31C171.07 319.157 171.328 318.835 171.382 317.963C168.374 315.566 165.738 312.836 163.529 309.916L163.159 309.428L162.808 308.925L118.257 245.158L109.745 255.366ZM228.002 324.003C234.026 330.488 243.085 340.037 243.437 340.167C243.578 340.221 248.494 334.991 254.387 328.56C255.222 327.648 256.045 326.751 256.844 325.879C253.158 326.922 249.219 327.5 245.061 327.5C238.823 327.5 233.101 326.205 228.002 324.003ZM185.613 328.56C191.506 334.991 196.422 340.221 196.563 340.167C196.883 340.049 204.393 332.152 210.282 325.845C209.613 326.037 208.927 326.216 208.213 326.384L208.017 326.43L207.82 326.474C205.93 326.893 204.358 327.093 203.403 327.208L203.129 327.241L202.854 327.27C201.781 327.38 200.263 327.5 198.47 327.5C192.282 327.5 186.555 326.207 181.437 324.002C182.751 325.436 184.164 326.978 185.613 328.56ZM57.8438 42.9434C51.5866 40.9576 51 40.7897 51 41.1533C51.0027 41.3205 52.3983 55.4337 54.1006 72.5615L57.2012 103.747L67.0342 113.676C68.6544 115.306 73.1458 119.847 79.7275 126.507C87.2004 118.291 97.8532 112.681 111.004 112.504L111.645 112.5C128.126 112.5 141.255 121.582 148.549 132.977L199.136 205.624C205.351 201.79 212.74 199.369 220.973 199.224L221.762 199.217C230.14 199.217 237.641 201.547 243.958 205.348L267.084 171.068C274.182 159.597 287.138 150.304 303.537 150.005L304.354 149.997C314.131 149.997 322.55 152.991 329.336 157.833C352.163 134.711 369.424 117.24 372.966 113.676L382.799 103.747L385.899 72.5615C387.602 55.4337 388.997 41.3204 389 41.1533C389 40.7897 388.413 40.9576 382.156 42.9434C378.776 44.0341 372.128 46.1596 367.352 47.6699C350.48 53.0399 346.289 54.3827 334.809 58.0186C328.44 60.0603 322.545 61.9059 321.763 62.1855L320.282 62.6328L234.525 164.159C229.58 170.011 224.726 175.751 220 181.342C215.274 175.751 210.42 170.011 205.475 164.159L119.718 62.6328L118.237 62.1855C117.455 61.9059 111.56 60.0603 105.191 58.0186C93.7107 54.3827 89.5204 53.0399 72.6484 47.6699C67.8718 46.1596 61.2237 44.0341 57.8438 42.9434Z" fill="black"/>
<path d="M189.45 290.311C191.608 293.164 194.844 295 198.47 295C198.826 295 199.179 294.976 199.529 294.94C200.129 294.868 200.456 294.817 200.78 294.745C201.183 294.65 201.482 294.562 201.776 294.461C202.343 294.263 202.596 294.163 202.841 294.052C203.417 293.773 203.62 293.666 203.822 293.551C204.371 293.216 204.514 293.117 204.657 293.017C204.893 292.849 205.129 292.675 205.355 292.487C205.798 292.118 205.953 291.974 206.107 291.827C206.575 291.361 206.874 291.026 207.158 290.677C207.695 289.996 208.132 289.331 208.509 288.622L221.725 267.32L234.935 288.622C237.008 292.408 240.755 295 245.06 295C249.381 295 253.146 292.388 255.157 288.518L312.933 204.091C314.832 201.793 316 198.748 316 195.386C316 188.27 310.786 182.497 304.354 182.497C300.192 182.497 296.548 184.922 294.488 188.561L245.718 260.849L231.991 238.427C230.012 234.431 226.172 231.716 221.762 231.716C217.728 231.716 214.17 233.993 212.081 237.446L197.923 260.758L121.408 150.874C119.328 147.338 115.739 145 111.645 145C105.213 145 100 150.77 100 157.886C100 160.997 100.992 163.847 102.647 166.072L189.45 290.311Z" fill="black" stroke="black" stroke-width="15"/>
</svg>
